HIERARCHY
ROOT Hips
{
	OFFSET -0.001795 -0.223333 0.028219
	CHANNELS 6 Xposition Yposition Zposition Zrotation Yrotation Xrotation 
	JOINT LeftUpLeg
	{
		OFFSET 0.069520 -0.091406 -0.006815
		CHANNELS 3 Zrotation Yrotation Xrotation
		JOINT LeftLeg
		{
			OFFSET 0.034277 -0.375199 -0.004496
			CHANNELS 3 Zrotation Yrotation Xrotation
			JOINT LeftFoot
			{
				OFFSET -0.013596 -0.397961 -0.043693
				CHANNELS 3 Zrotation Yrotation Xrotation
				JOINT LeftToe
				{
					OFFSET 0.026358 -0.055791 0.119288
					CHANNELS 3 Zrotation Yrotation Xrotation
					End Site
					{
						OFFSET 0.000000 0.000000 0.000000
					}
				}
			}
		}
	}
	JOINT RightUpLeg
	{
		OFFSET -0.067670 -0.090522 -0.004320
		CHANNELS 3 Zrotation Yrotation Xrotation
		JOINT RightLeg
		{
			OFFSET -0.038290 -0.382569 -0.008850
			CHANNELS 3 Zrotation Yrotation Xrotation
			JOINT RightFoot
			{
				OFFSET 0.015774 -0.398415 -0.042312
				CHANNELS 3 Zrotation Yrotation Xrotation
				JOINT RightToe
				{
					OFFSET -0.025372 -0.048144 0.123348
					CHANNELS 3 Zrotation Yrotation Xrotation
					End Site
					{
						OFFSET 0.000000 0.000000 0.000000
					}
				}
			}
		}
	}
	JOINT Spine
	{
		OFFSET -0.002533 0.108963 -0.026696
		CHANNELS 3 Zrotation Yrotation Xrotation
		JOINT Spine1
		{
			OFFSET 0.005487 0.135180 0.001092
			CHANNELS 3 Zrotation Yrotation Xrotation
			JOINT Spine2
			{
				OFFSET 0.001457 0.052922 0.025425
				CHANNELS 3 Zrotation Yrotation Xrotation
				JOINT Neck
				{
					OFFSET -0.002778 0.213870 -0.042857
					CHANNELS 3 Zrotation Yrotation Xrotation
					JOINT Head
					{
						OFFSET 0.005152 0.064970 0.051349
						CHANNELS 3 Zrotation Yrotation Xrotation
						End Site
						{
							OFFSET 0.000000 0.000000 0.000000
						}
					}
				}
				JOINT LeftShoulder
				{
					OFFSET 0.078845 0.121749 -0.034090
					CHANNELS 3 Zrotation Yrotation Xrotation
					JOINT LeftArm
					{
						OFFSET 0.090977 0.030469 -0.008868
						CHANNELS 3 Zrotation Yrotation Xrotation
						JOINT LeftForeArm
						{
							OFFSET 0.259612 -0.012772 -0.027456
							CHANNELS 3 Zrotation Yrotation Xrotation
							JOINT LeftHand
							{
								OFFSET 0.249234 0.008986 -0.001171
								CHANNELS 3 Zrotation Yrotation Xrotation
								End Site
								{
									OFFSET 0.000000 0.000000 0.000000
								}
							}
						}
					}
				}
				JOINT RightShoulder
				{
					OFFSET -0.081759 0.118833 -0.038615
					CHANNELS 3 Zrotation Yrotation Xrotation
					JOINT RightArm
					{
						OFFSET -0.096012 0.032551 -0.009143
						CHANNELS 3 Zrotation Yrotation Xrotation
						JOINT RightForeArm
						{
							OFFSET -0.253742 -0.013329 -0.021401
							CHANNELS 3 Zrotation Yrotation Xrotation
							JOINT RightHand
							{
								OFFSET -0.255298 0.007772 -0.005559
								CHANNELS 3 Zrotation Yrotation Xrotation
								End Site
								{
									OFFSET 0.000000 0.000000 0.000000
								}
							}
						}
					}
				}
			}
		}
	}
}
MOTION
Frames: 10
Frame Time: 0.050000
0.000000 0.949456 0.000000 -0.002162 -5.568004 7.311170 2.827849 -0.336875 -4.087415 -0.433691 0.202974 -4.938877 -0.013228 3.198386 9.604782 0.000000 0.000000 0.000000 -1.888084 0.557878 -5.612138 -1.269280 -0.005222 -2.422951 -0.202169 -4.836952 8.667324 0.000000 0.000000 0.000000 5.718159 0.272054 -4.739221 -2.769277 1.190482 -7.272430 -3.163838 6.024234 6.791309 5.197602 -1.697044 -15.898726 0.000000 0.000000 0.000000 -16.377124 1.424858 -2.929978 -55.954282 -7.720629 -3.203431 -9.594643 -18.681733 2.169437 0.000000 0.000000 0.000000 15.257687 -8.713239 -5.137208 61.753322 3.523432 -4.170235 14.811982 26.658860 4.471639 0.000000 0.000000 0.000000 
-0.000093 0.948588 0.000725 -0.306021 -6.073872 8.208044 3.194196 -0.334649 -4.072403 -0.650645 0.256521 -6.060478 0.139444 3.080141 8.464098 0.000000 0.000000 0.000000 -1.897504 0.651270 -6.635506 -1.215477 -0.003305 -2.272098 0.145398 -4.265343 8.854460 0.000000 0.000000 0.000000 6.678240 0.339511 -5.397256 -3.274121 1.382045 -7.101736 -3.615658 6.676972 6.135247 4.810286 -1.240951 -17.081670 0.000000 0.000000 0.000000 -17.166441 1.863603 -3.396449 -54.805442 -8.094427 -2.863671 -10.110295 -17.486785 2.082480 0.000000 0.000000 0.000000 14.885135 -9.997813 -5.673010 62.981976 1.963674 -4.933823 15.277477 26.696887 4.611113 0.000000 0.000000 0.000000 
-0.000239 0.948287 0.001208 0.175498 -5.576818 7.908589 2.999886 -0.360621 -4.438243 -0.778835 0.209556 -4.309427 -0.398613 1.754767 7.193872 0.000000 0.000000 0.000000 -2.111579 0.655271 -6.718865 -1.468162 0.059495 -1.436259 -0.841380 -5.913591 8.085439 0.000000 0.000000 0.000000 6.469960 0.318916 -5.208315 -3.391938 1.427215 -7.660788 -3.761717 6.219146 6.553187 4.086758 -0.929227 -16.309991 0.000000 0.000000 0.000000 -16.777912 1.308246 -2.997937 -55.027603 -7.652655 -3.141497 -9.294433 -16.613149 1.871307 0.000000 0.000000 0.000000 15.788305 -9.096864 -5.368202 62.418935 1.623100 -5.180828 13.233414 26.400098 4.081519 0.000000 0.000000 0.000000 
-0.000491 0.948089 0.001702 0.139477 -5.091721 8.336894 3.495351 -0.362001 -4.514824 -1.244446 0.265845 -5.089434 -1.244753 0.402734 7.674245 0.000000 0.000000 0.000000 -2.189134 0.682066 -7.023562 -1.132253 0.015771 -1.795409 -1.193937 -6.827109 8.744007 0.000000 0.000000 0.000000 6.455597 0.350733 -5.638317 -3.264727 1.394760 -7.051425 -3.850075 5.995867 5.599064 3.980217 -0.902595 -15.817590 0.000000 0.000000 0.000000 -16.925117 2.175067 -3.510496 -55.496483 -8.338960 -2.745488 -8.242036 -15.187093 1.560734 0.000000 0.000000 0.000000 15.161216 -9.740364 -5.602717 62.744373 1.417800 -5.167904 13.074733 25.250846 3.832889 0.000000 0.000000 0.000000 
-0.000790 0.948415 0.002135 0.228627 -4.831941 8.260363 3.206727 -0.373227 -4.599963 -0.903855 0.232550 -4.811680 -1.208825 0.466217 7.598553 0.000000 0.000000 0.000000 -2.282480 0.677591 -6.990460 -1.154679 0.015304 -1.852180 -1.341262 -7.047073 8.604854 0.000000 0.000000 0.000000 6.353043 0.346491 -5.619988 -3.130437 1.347661 -6.928236 -3.940625 6.046248 5.735608 3.656837 -0.690100 -15.767872 0.000000 0.000000 0.000000 -16.677058 1.951164 -3.397637 -55.671208 -8.246821 -2.814410 -7.927396 -14.756200 1.471997 0.000000 0.000000 0.000000 14.919188 -9.736364 -5.525344 63.087321 1.128889 -5.338579 12.326772 24.594761 3.577907 0.000000 0.000000 0.000000 
-0.001088 0.948704 0.002509 0.366062 -4.380732 8.405337 3.276476 -0.373451 -4.562551 -1.076475 0.253919 -5.164698 -1.483852 0.057844 7.748471 0.000000 0.000000 0.000000 -2.490938 0.663418 -6.838427 -1.087593 -0.011832 -2.323305 -1.537177 -7.605242 9.237412 0.000000 0.000000 0.000000 6.129863 0.353354 -5.795986 -2.946795 1.280030 -7.009235 -4.049206 5.993822 5.780606 3.687011 -0.704381 -15.618242 0.000000 0.000000 0.000000 -16.993533 2.224502 -3.638407 -55.436212 -8.355224 -2.740809 -7.381283 -14.196751 1.344524 0.000000 0.000000 0.000000 14.829373 -9.714645 -5.464644 63.217732 0.877096 -5.465759 11.650664 23.977352 3.350039 0.000000 0.000000 0.000000 
-0.001237 0.948658 0.002709 0.333987 -3.983661 8.429882 3.212330 -0.380617 -4.625567 -0.903901 0.240329 -5.146556 -1.484748 0.181055 7.982290 0.000000 0.000000 0.000000 -2.247068 0.660557 -6.800951 -1.259972 -0.002849 -2.416723 -1.459992 -7.454243 9.367640 0.000000 0.000000 0.000000 6.106907 0.357962 -5.886925 -2.941975 1.286005 -6.907401 -4.124843 5.679730 5.905445 3.847321 -0.767950 -15.984752 0.000000 0.000000 0.000000 -16.955329 2.391290 -3.692877 -55.640883 -8.145076 -2.866255 -6.932268 -13.649750 1.243708 0.000000 0.000000 0.000000 14.508024 -9.721641 -5.433195 63.456368 0.740553 -5.561394 11.234171 23.451595 3.178174 0.000000 0.000000 0.000000 
-0.001284 0.948633 0.002765 0.219701 -3.661676 8.551440 3.303029 -0.396924 -4.877098 -0.971309 0.238077 -4.930564 -1.399757 0.236048 7.638950 0.000000 0.000000 0.000000 -1.975723 0.662814 -6.809198 -1.316077 0.003192 -2.391534 -1.483665 -7.384011 9.110300 0.000000 0.000000 0.000000 6.115066 0.375166 -6.108623 -2.839548 1.251647 -6.708120 -4.121926 5.578914 5.810099 4.268479 -1.091066 -15.402991 0.000000 0.000000 0.000000 -17.094332 2.552485 -3.819352 -55.461033 -7.919797 -2.945946 -6.769953 -13.410986 1.200831 0.000000 0.000000 0.000000 14.305643 -9.861982 -5.463679 63.434790 0.907607 -5.442750 11.004637 22.738598 3.023959 0.000000 0.000000 0.000000 
-0.001275 0.948607 0.002697 0.123483 -3.512949 8.598822 3.320490 -0.406670 -5.025684 -0.983007 0.231232 -4.667368 -1.144367 0.615965 7.366147 0.000000 0.000000 0.000000 -1.815613 0.661421 -6.781248 -1.268949 -0.015359 -2.698575 -1.340495 -7.072080 9.080227 0.000000 0.000000 0.000000 6.085336 0.378991 -6.175018 -2.777800 1.227625 -6.863867 -4.024781 5.445168 6.015017 4.618994 -1.320133 -15.390102 0.000000 0.000000 0.000000 -17.006640 2.799022 -3.903736 -55.710522 -7.965848 -2.965246 -6.526565 -12.994132 1.139508 0.000000 0.000000 0.000000 14.284500 -9.913875 -5.495841 63.272194 1.165459 -5.317457 10.829837 22.177970 2.903120 0.000000 0.000000 0.000000 
-0.001242 0.948658 0.002585 0.022402 -3.588273 8.598349 3.332329 -0.403386 -4.982569 -0.979324 0.233275 -4.745250 -0.794304 1.258782 7.380503 0.000000 0.000000 0.000000 -1.679223 0.672472 -6.895004 -1.300054 -0.016025 -2.752623 -1.207224 -6.804865 9.052274 0.000000 0.000000 0.000000 6.104344 0.387431 -6.247022 -2.739608 1.210690 -6.924358 -3.908382 5.486731 6.090026 5.238978 -1.748168 -15.110113 0.000000 0.000000 0.000000 -16.835487 3.076014 -4.001635 -55.956454 -7.938753 -3.008793 -6.405090 -12.630210 1.095328 0.000000 0.000000 0.000000 14.161974 -9.877919 -5.462415 63.211952 1.676132 -5.046193 10.375040 21.262842 2.682301 0.000000 0.000000 0.000000 
